HIERARCHY
ROOT hip
{
	OFFSET 0.000000 0.000000 0.000000
	CHANNELS 6 Xposition Yposition Zposition Xrotation Zrotation Yrotation 
	JOINT abdomen
	{
		OFFSET 0.000000 3.422050 0.000000
		CHANNELS 3 Xrotation Zrotation Yrotation 
		JOINT chest
		{
			OFFSET 0.000000 8.486693 -0.684411
			CHANNELS 3 Xrotation Zrotation Yrotation 
			JOINT neck
			{
				OFFSET 0.000000 10.266162 -0.273764
				CHANNELS 3 Xrotation Zrotation Yrotation 
				JOINT head
				{
					OFFSET 0.000000 3.148285 0.000000
					CHANNELS 3 Xrotation Zrotation Yrotation 
					End Site
					{
						OFFSET 0.000000 3.148289 0.000000
					}
				}
			}
			JOINT lCollar
			{
				OFFSET 3.422053 6.707223 -0.821293
				CHANNELS 3 Yrotation Zrotation Xrotation 
				JOINT lShldr
				{
					OFFSET 3.285171 0.000000 0.000000
					CHANNELS 3 Zrotation Yrotation Xrotation 
					JOINT lForeArm
					{
						OFFSET 10.129278 0.000000 0.000000
						CHANNELS 3 Yrotation Zrotation Xrotation 
						JOINT lHand
						{
							OFFSET 8.486692 0.000000 0.000000
							CHANNELS 3 Zrotation Yrotation Xrotation 
							End Site
							{
								OFFSET 4.106464 0.000000 0.000000
							}
						}
					}
				}
			}
			JOINT rCollar
			{
				OFFSET -3.558935 6.707223 -0.821293
				CHANNELS 3 Yrotation Zrotation Xrotation 
				JOINT rShldr
				{
					OFFSET -3.148289 0.000000 0.000000
					CHANNELS 3 Zrotation Yrotation Xrotation 
					JOINT rForeArm
					{
						OFFSET -10.266159 0.000000 0.000000
						CHANNELS 3 Yrotation Zrotation Xrotation 
						JOINT rHand
						{
							OFFSET -8.349810 0.000000 0.000000
							CHANNELS 3 Zrotation Yrotation Xrotation 
							End Site
							{
								OFFSET -4.106464 0.000000 0.000000
							}
						}
					}
				}
			}
		}
	}
	JOINT lThigh
	{
		OFFSET 5.338403 -1.642589 1.368821
		CHANNELS 3 Xrotation Zrotation Yrotation 
		JOINT lShin
		{
			OFFSET -2.053232 -20.121670 0.000000
			CHANNELS 3 Xrotation Zrotation Yrotation 
			JOINT lFoot
			{
				OFFSET 0.000000 -19.300380 -1.231939
				CHANNELS 3 Xrotation Yrotation Zrotation 
				End Site
				{
					OFFSET 0.000000 -2.463878 4.653993
				}
			}
		}
	}
	JOINT rThigh
	{
		OFFSET -5.338403 -1.642589 1.368821
		CHANNELS 3 Xrotation Zrotation Yrotation 
		JOINT rShin
		{
			OFFSET 2.053232 -20.121670 0.000000
			CHANNELS 3 Xrotation Zrotation Yrotation 
			JOINT rFoot
			{
				OFFSET 0.000000 -19.300380 -1.231939
				CHANNELS 3 Xrotation Yrotation Zrotation 
				End Site
				{
					OFFSET 0.000000 -2.463878 4.653993
				}
			}
		}
	}
}
MOTION
Frames: 16
Frame Time: 0.039918
19.995884 24.369755 1.610456 12.854368 0.000000 0.000000 -8.027329 0.214135 -0.421770 23.369450 -0.478626 -1.700704 1.319354 0.000000 0.000000 -10.633996 -9.152068 -11.839933 -27.069868 -13.198177 3.206928 -22.095699 10.295577 -5.992056 -43.810421 -45.088623 -6.703464 42.617664 -9.343087 -7.020698 26.352859 12.321627 3.578012 22.263597 -10.472476 -5.937091 45.269955 46.017899 -7.786683 -42.974472 9.335197 -7.064122 -8.365932 10.686430 10.159081 85.356537 1.098651 -0.593819 60.201984 8.931102 -14.975943 -8.193663 -10.802296 -10.287731 85.254501 -1.207233 0.688816 61.196049 -8.762215 15.061236 
19.995884 24.413910 1.460720 13.710491 0.000000 0.000000 -8.402804 0.214117 -0.421772 23.369452 -0.478626 -1.700704 1.667584 0.000000 0.000000 -11.392776 -9.103038 -11.758581 -27.069868 -13.198177 3.206928 -22.095699 10.295578 -5.992056 -44.130264 -45.255894 -6.923513 42.987793 -9.433562 -7.035380 26.352859 12.321627 3.578012 22.263597 -10.472476 -5.937091 45.713478 46.243416 -8.098126 -43.360245 9.408511 -7.059546 -9.743463 10.753181 10.175127 85.805168 1.133855 -0.588845 60.201984 8.931102 -14.975943 -9.582306 -10.869079 -10.301268 85.709106 -1.242826 0.682198 61.196049 -8.762215 15.061236 
19.995884 24.458063 1.310983 14.566423 0.000000 0.000000 -8.778260 0.214099 -0.421774 23.369450 -0.478626 -1.700704 2.015569 0.000000 0.000000 -12.152005 -9.052908 -11.677842 -27.069868 -13.198177 3.206928 -22.095697 10.295576 -5.992056 -44.451946 -45.422295 -7.145531 43.358032 -9.523937 -7.050656 26.352859 12.321627 3.578012 22.263597 -10.472476 -5.937091 46.160568 46.467239 -8.413360 -43.746094 9.481853 -7.055474 -11.120476 10.820252 10.189529 86.253784 1.169016 -0.583596 60.201984 8.931102 -14.975943 -10.970420 -10.936125 -10.313149 86.163696 -1.278363 0.675299 61.196049 -8.762215 15.061236 
19.995884 24.502218 1.161247 15.422067 0.000000 0.000000 -9.153691 0.214080 -0.421776 23.369450 -0.478626 -1.700704 2.363304 0.000000 0.000000 -12.911613 -9.001684 -11.597731 -27.069868 -13.198177 3.206928 -22.095699 10.295577 -5.992056 -44.775486 -45.587803 -7.369529 43.728363 -9.614207 -7.066529 26.352859 12.321627 3.578012 22.263597 -10.472476 -5.937091 46.611263 46.689335 -8.732411 -44.131992 9.555215 -7.051902 -12.496577 10.887583 10.202277 86.702370 1.204132 -0.578072 60.201984 8.931102 -14.975943 -12.357611 -11.003373 -10.323364 86.618263 -1.313841 0.668118 61.196049 -8.762215 15.061236 
19.995884 24.546373 1.011511 16.277328 0.000000 0.000000 -9.529095 0.214062 -0.421778 23.369450 -0.478626 -1.700704 2.710782 0.000000 0.000000 -13.671534 -8.949387 -11.518278 -27.069868 -13.198177 3.206928 -22.095699 10.295577 -5.992056 -45.100899 -45.752422 -7.595516 44.098801 -9.704368 -7.082997 26.352859 12.321627 3.578012 22.263597 -10.472476 -5.937091 47.065582 46.909672 -9.055291 -44.517933 9.628594 -7.048831 -13.871382 10.955120 10.213367 87.150902 1.239199 -0.572273 60.201984 8.931102 -14.975943 -13.743462 -11.070765 -10.331912 87.072762 -1.349256 0.660657 61.196049 -8.762215 15.061236 
19.995884 24.590528 0.861774 17.132111 0.000000 0.000000 -9.904454 0.214044 -0.421780 23.369450 -0.478626 -1.700704 3.057998 0.000000 0.000000 -14.431695 -8.896019 -11.439498 -27.069868 -13.198177 3.206928 -22.095697 10.295576 -5.992056 -45.428173 -45.916119 -7.823493 44.469315 -9.794412 -7.100057 26.352859 12.321627 3.578012 22.263597 -10.472476 -5.937091 47.523533 47.128216 -9.382026 -44.903896 9.701978 -7.046258 -15.244491 11.022796 10.222792 87.599373 1.274215 -0.566201 60.201984 8.931102 -14.975943 -15.127590 -11.138242 -10.338789 87.527199 -1.384605 0.652917 61.196049 -8.762215 15.061236 
19.995884 24.634684 0.712038 17.986328 0.000000 0.000000 -10.279768 0.214026 -0.421782 23.369450 -0.478626 -1.700704 3.404945 0.000000 0.000000 -15.192039 -8.841601 -11.361419 -27.069868 -13.198177 3.206928 -22.095699 10.295577 -5.992056 -45.757328 -46.078892 -8.053473 44.839909 -9.884333 -7.117712 26.352859 12.321627 3.578012 22.263597 -10.472476 -5.937091 47.985153 47.344944 -9.712629 -45.289906 9.775373 -7.044190 -16.615522 11.090558 10.230551 88.047783 1.309175 -0.559857 60.201992 8.931102 -14.975945 -16.509586 -11.205736 -10.343994 87.981583 -1.419885 0.644897 61.196049 -8.762215 15.061236 
19.995884 24.678837 0.562301 18.839876 0.000000 0.000000 -10.655025 0.214008 -0.421783 23.369450 -0.478626 -1.700704 3.751619 0.000000 0.000000 -15.952484 -8.786139 -11.284058 -27.069868 -13.198177 3.206928 -22.095699 10.295577 -5.992056 -46.088375 -46.240730 -8.285459 45.210567 -9.974123 -7.135955 26.352859 12.321627 3.578012 22.263597 -10.472476 -5.937091 48.450424 47.559814 -10.047110 -45.675922 9.848764 -7.042622 -17.984093 11.158345 10.236647 88.496094 1.344077 -0.553240 60.201984 8.931102 -14.975943 -17.889069 -11.273203 -10.347537 88.435852 -1.455092 0.636600 61.196049 -8.762215 15.061236 
19.995884 24.722992 0.412565 19.692665 0.000000 0.000000 -11.030213 0.213990 -0.421784 23.369450 -0.478626 -1.700704 4.098012 0.000000 0.000000 -16.712973 -8.729653 -11.207438 -27.069868 -13.198177 3.206928 -22.095697 10.295576 -5.992056 -46.421318 -46.401623 -8.519463 45.581303 -10.063782 -7.154793 26.352859 12.321627 3.578012 22.263597 -10.472476 -5.937091 48.919407 47.772800 -10.385499 -46.061943 9.922150 -7.041555 -19.349821 11.226102 10.241085 88.944305 1.378918 -0.546352 60.201992 8.931102 -14.975945 -19.265642 -11.340573 -10.349420 88.890045 -1.490224 0.628026 61.196049 -8.762215 15.061236 
19.995884 24.767147 0.262828 20.544603 0.000000 0.000000 -11.405334 0.213972 -0.421786 23.369452 -0.478626 -1.700704 4.444117 0.000000 0.000000 -17.473434 -8.672153 -11.131577 -27.069868 -13.198177 3.206928 -22.095699 10.295577 -5.992056 -46.756157 -46.561543 -8.755488 45.952095 -10.153301 -7.174221 26.352859 12.321627 3.578012 22.263597 -10.472476 -5.937091 49.392078 47.983860 -10.727798 -46.447983 9.995527 -7.040991 -20.712334 11.293767 10.243871 89.392418 1.413695 -0.539194 60.201984 8.931102 -14.975943 -20.638918 -11.407791 -10.349651 89.344093 -1.525276 0.619176 61.196049 -8.762215 15.061236 
19.995884 24.811302 0.113092 21.395590 0.000000 0.000000 -11.780374 0.213954 -0.421787 23.369450 -0.478626 -1.700704 4.789933 0.000000 0.000000 -18.233799 -8.613657 -11.056499 -27.069870 -13.198177 3.206929 -22.095699 10.295577 -5.992056 -47.092911 -46.720512 -8.993539 46.322945 -10.242674 -7.194238 26.352859 12.321627 3.578012 22.263597 -10.472476 -5.937091 49.868450 48.192959 -11.074012 -46.834019 10.068891 -7.040931 -22.071251 11.361279 10.245010 89.840393 1.448403 -0.531765 60.201992 8.931102 -14.975945 -22.008520 -11.474800 -10.348247 89.798027 -1.560247 0.610051 61.196049 -8.762215 15.061236 
19.995884 24.855457 -0.036644 22.245546 0.000000 0.000000 -12.155323 0.213936 -0.421788 23.369450 -0.478626 -1.700704 5.135447 0.000000 0.000000 -18.993999 -8.554176 -10.982218 -27.069870 -13.198177 3.206929 -22.095699 10.295578 -5.992056 -47.431553 -46.878471 -9.233620 46.693840 -10.331899 -7.214842 26.352859 12.321627 3.578012 22.263597 -10.472476 -5.937091 50.348564 48.400078 -11.424173 -47.220024 10.142230 -7.041369 -23.426226 11.428590 10.244524 90.288239 1.483041 -0.524069 60.201984 8.931102 -14.975943 -23.374086 -11.541543 -10.345220 90.251816 -1.595132 0.600652 61.196049 -8.762215 15.061236 
19.995884 24.899611 -0.186381 23.094366 0.000000 0.000000 -12.530177 0.213918 -0.421789 23.369452 -0.478626 -1.700704 5.480657 0.000000 0.000000 -19.753969 -8.493730 -10.908756 -27.069866 -13.198176 3.206928 -22.095699 10.295577 -5.992056 -47.772141 -47.035446 -9.475744 47.064785 -10.420965 -7.236036 26.352859 12.321627 3.578012 22.263597 -10.472476 -5.937091 50.832409 48.605179 -11.778277 -47.606022 10.215545 -7.042310 -24.776896 11.495643 10.242425 90.735916 1.517605 -0.516104 60.201992 8.931102 -14.975945 -24.735237 -11.607964 -10.340588 90.705444 -1.629928 0.590981 61.196049 -8.762215 15.061236 
19.995884 24.943766 -0.336117 23.941975 0.000000 0.000000 -12.904928 0.213900 -0.421790 23.369450 -0.478626 -1.700704 5.825556 0.000000 0.000000 -20.513641 -8.432333 -10.836135 -27.069868 -13.198177 3.206928 -22.095699 10.295577 -5.992056 -48.114635 -47.191402 -9.719911 47.435753 -10.509870 -7.257813 26.352859 12.321627 3.578012 22.263597 -10.472476 -5.937091 51.319965 48.808201 -12.136324 -47.992004 10.288834 -7.043755 -26.122900 11.562378 10.238725 91.183434 1.552091 -0.507873 60.201984 8.931102 -14.975943 -26.091631 -11.674012 -10.334371 91.158913 -1.664633 0.581039 61.196049 -8.762215 15.061236 
19.995884 24.987921 -0.485854 24.788263 0.000000 0.000000 -13.279565 0.213881 -0.421791 23.369450 -0.478626 -1.700704 6.170141 0.000000 0.000000 -21.272945 -8.370003 -10.764365 -27.069868 -13.198177 3.206928 -22.095699 10.295577 -5.992056 -48.459053 -47.346313 -9.966123 47.806755 -10.598606 -7.280175 26.352859 12.321627 3.578012 22.263597 -10.472476 -5.937091 51.811298 49.009163 -12.498339 -48.377930 10.362081 -7.045698 -27.463915 11.628752 10.233454 91.630768 1.586498 -0.499376 60.201992 8.931102 -14.975945 -27.442905 -11.739635 -10.326592 91.612167 -1.699242 0.570826 61.196049 -8.762215 15.061236 
19.995884 25.032076 -0.635590 25.633162 0.000000 0.000000 -13.654079 0.213863 -0.421791 23.369450 -0.478626 -1.700704 6.514401 0.000000 0.000000 -22.031822 -8.306758 -10.693474 -27.069868 -13.198177 3.206928 -22.095699 10.295577 -5.992056 -48.805416 -47.500225 -10.214392 48.177769 -10.687169 -7.303120 26.352859 12.321627 3.578012 22.263597 -10.472476 -5.937091 52.306374 49.207993 -12.864315 -48.763817 10.435290 -7.048143 -28.799578 11.694700 10.226625 92.077904 1.620821 -0.490615 60.201984 8.931102 -14.975943 -28.788719 -11.804779 -10.317278 92.065239 -1.733753 0.560345 61.196049 -8.762215 15.061236 
